<svg width="53" height="63" viewBox="0 0 53 63" fill="none" xmlns="http://www.w3.org/2000/svg">
<path d="M3.17969 17C2.64323 17 2.23438 16.9323 1.95312 16.7969C1.67708 16.6615 1.48958 16.4401 1.39062 16.1328C1.29688 15.8255 1.25 15.4167 1.25 14.9062V7.04688C1.25 6.89583 1.27604 6.78125 1.32812 6.70312C1.5625 6.35938 1.89062 5.9974 2.3125 5.61719C2.39062 5.55469 2.45833 5.52344 2.51562 5.52344C2.57812 5.52344 2.64323 5.55469 2.71094 5.61719C2.9401 5.8151 3.13281 6.00521 3.28906 6.1875C3.44531 6.36458 3.58073 6.53646 3.69531 6.70312C3.7474 6.78646 3.77344 6.90104 3.77344 7.04688V13.9766C3.77344 14.3255 3.83594 14.5755 3.96094 14.7266C4.08594 14.8776 4.32031 14.9531 4.66406 14.9531L7.0625 14.9453C7.1875 14.9453 7.28125 14.9661 7.34375 15.0078C7.47917 15.1016 7.61979 15.2135 7.76562 15.3438C7.91146 15.474 8.0651 15.6302 8.22656 15.8125C8.27865 15.8802 8.30469 15.9349 8.30469 15.9766C8.30469 16.0234 8.27865 16.0755 8.22656 16.1328C8.0651 16.3151 7.91146 16.4714 7.76562 16.6016C7.61979 16.7318 7.47917 16.8438 7.34375 16.9375C7.27083 16.9792 7.17708 17 7.0625 17H3.17969ZM13.1328 17.1953C12.2526 17.1953 11.487 17.0547 10.8359 16.7734C10.1849 16.487 9.67969 16.0443 9.32031 15.4453C8.96094 14.8464 8.78125 14.0729 8.78125 13.125C8.78125 11.7031 9.14583 10.6276 9.875 9.89844C10.6042 9.16927 11.5729 8.80469 12.7812 8.80469C13.5677 8.80469 14.2318 8.94531 14.7734 9.22656C15.3203 9.50781 15.7344 9.89583 16.0156 10.3906C16.3021 10.8854 16.4453 11.4505 16.4453 12.0859C16.4453 12.7057 16.2865 13.138 15.9688 13.3828C15.651 13.6276 15.1875 13.75 14.5781 13.75H11.2266C11.2682 14.2865 11.4635 14.6953 11.8125 14.9766C12.1667 15.2578 12.6458 15.3984 13.25 15.3984C13.7292 15.3984 14.112 15.3281 14.3984 15.1875C14.6901 15.0417 14.8932 14.9271 15.0078 14.8438C15.1068 14.7708 15.2188 14.737 15.3438 14.7422C15.4427 14.7422 15.5833 14.763 15.7656 14.8047C15.9531 14.8411 16.138 14.9115 16.3203 15.0156C16.4505 15.0833 16.5156 15.1771 16.5156 15.2969C16.5156 15.3646 16.5026 15.4609 16.4766 15.5859C16.4609 15.6589 16.4349 15.7656 16.3984 15.9062C16.362 16.0417 16.3151 16.1693 16.2578 16.2891C16.2266 16.3464 16.1771 16.401 16.1094 16.4531C16.0052 16.526 15.8359 16.6224 15.6016 16.7422C15.3724 16.862 15.0573 16.9661 14.6562 17.0547C14.2552 17.1484 13.7474 17.1953 13.1328 17.1953ZM11.2109 12.1484H13.7578C14.0234 12.1484 14.1562 12.026 14.1562 11.7812C14.1562 11.4115 14.0391 11.1016 13.8047 10.8516C13.5755 10.5964 13.2292 10.4688 12.7656 10.4688C12.2604 10.4688 11.888 10.6302 11.6484 10.9531C11.4141 11.276 11.2682 11.6745 11.2109 12.1484ZM21.25 17.1953C19.5104 17.1953 18.6406 16.2917 18.6406 14.4844V10.8203H17.7578C17.6016 10.8203 17.4922 10.7891 17.4297 10.7266C17.3724 10.6589 17.3438 10.5469 17.3438 10.3906V9.42969C17.3438 9.27344 17.3724 9.16406 17.4297 9.10156C17.4922 9.03385 17.6016 9 17.7578 9H18.6406V7.74219C18.6406 7.61719 18.6667 7.52083 18.7188 7.45312C18.9375 7.16667 19.2578 6.85677 19.6797 6.52344C19.7526 6.47135 19.8177 6.44531 19.875 6.44531C19.9375 6.44531 20 6.47135 20.0625 6.52344C20.2865 6.69531 20.474 6.85677 20.625 7.00781C20.7812 7.15885 20.9141 7.30729 21.0234 7.45312C21.0755 7.52083 21.1016 7.61719 21.1016 7.74219V9H22.4844C22.6406 9 22.7474 9.03385 22.8047 9.10156C22.8672 9.16406 22.8984 9.27344 22.8984 9.42969V10.3906C22.8984 10.5469 22.8672 10.6589 22.8047 10.7266C22.7474 10.7891 22.6406 10.8203 22.4844 10.8203H21.1016V14.0547C21.1016 14.888 21.4036 15.3047 22.0078 15.3047C22.1016 15.3047 22.1875 15.2969 22.2656 15.2812C22.3438 15.2604 22.4115 15.2396 22.4688 15.2188C22.5781 15.1771 22.6536 15.1615 22.6953 15.1719C22.7422 15.1823 22.7839 15.2396 22.8203 15.3438L23.2734 16.5547C23.3203 16.6849 23.2891 16.7786 23.1797 16.8359C23.1016 16.8724 22.9115 16.9401 22.6094 17.0391C22.3125 17.1432 21.8594 17.1953 21.25 17.1953ZM24.3906 9.88281C24.5625 9.52344 24.7188 9.03125 24.8594 8.40625C25 7.78125 25.0703 7.1224 25.0703 6.42969V5.79688C25.0703 5.72917 25.0911 5.66927 25.1328 5.61719C25.1745 5.5599 25.2526 5.53125 25.3672 5.53125H27.0547C27.1953 5.53125 27.2865 5.55729 27.3281 5.60938C27.375 5.65625 27.3984 5.74219 27.3984 5.86719C27.3984 6.9349 27.2422 7.85677 26.9297 8.63281C26.6172 9.40885 26.2839 10.0312 25.9297 10.5L24.3906 9.88281ZM30.7656 17.1953C30.2083 17.1953 29.7448 17.1484 29.375 17.0547C29.0104 16.9609 28.7161 16.849 28.4922 16.7188C28.2734 16.5833 28.1016 16.4609 27.9766 16.3516C27.8828 16.263 27.8724 16.1641 27.9453 16.0547L28.7422 14.875C28.8568 14.7083 28.987 14.6979 29.1328 14.8438C29.2839 14.9896 29.487 15.1328 29.7422 15.2734C30.0026 15.4089 30.3255 15.4766 30.7109 15.4766C31.0547 15.4766 31.3359 15.4193 31.5547 15.3047C31.7786 15.1849 31.8906 15.013 31.8906 14.7891C31.8906 14.6328 31.8411 14.5052 31.7422 14.4062C31.6432 14.3073 31.4688 14.2057 31.2188 14.1016C30.9688 13.9974 30.6198 13.8646 30.1719 13.7031C29.5104 13.4635 29.0104 13.1745 28.6719 12.8359C28.3333 12.4974 28.1641 12.0026 28.1641 11.3516C28.1641 10.7526 28.3281 10.2656 28.6562 9.89062C28.9896 9.51562 29.4141 9.24219 29.9297 9.07031C30.4505 8.89323 30.9922 8.80469 31.5547 8.80469C32.2682 8.80469 32.7682 8.8724 33.0547 9.00781C33.3464 9.13802 33.5339 9.23958 33.6172 9.3125C33.6953 9.38021 33.75 9.45833 33.7812 9.54688C33.849 9.75 33.901 10.0182 33.9375 10.3516C33.9583 10.5443 33.9089 10.6719 33.7891 10.7344C33.7266 10.7708 33.6276 10.8099 33.4922 10.8516C33.3568 10.8932 33.2214 10.9297 33.0859 10.9609C32.9505 10.9922 32.849 11.0078 32.7812 11.0078C32.7604 11.0078 32.737 11.0026 32.7109 10.9922C32.6901 10.9766 32.651 10.9427 32.5938 10.8906C32.526 10.8229 32.4089 10.7448 32.2422 10.6562C32.0807 10.5677 31.8568 10.5234 31.5703 10.5234C31.2891 10.5234 31.0521 10.5703 30.8594 10.6641C30.6719 10.7526 30.5781 10.9115 30.5781 11.1406C30.5781 11.3906 30.6979 11.5781 30.9375 11.7031C31.1823 11.8281 31.5833 11.9896 32.1406 12.1875C32.5781 12.3385 32.9583 12.5052 33.2812 12.6875C33.6094 12.8646 33.862 13.099 34.0391 13.3906C34.2161 13.6771 34.3047 14.0651 34.3047 14.5547C34.3047 15.1901 34.1302 15.7031 33.7812 16.0938C33.4375 16.4792 32.9948 16.7604 32.4531 16.9375C31.9167 17.1094 31.3542 17.1953 30.7656 17.1953ZM3.17969 38C2.64323 38 2.23438 37.9323 1.95312 37.7969C1.67708 37.6615 1.48958 37.4401 1.39062 37.1328C1.29688 36.8255 1.25 36.4167 1.25 35.9062V28.8906C1.25 28.3698 1.29688 27.9583 1.39062 27.6562C1.48958 27.349 1.67708 27.1302 1.95312 27C2.23438 26.8646 2.64323 26.7969 3.17969 26.7969H6.85156C6.97656 26.7969 7.07031 26.8177 7.13281 26.8594C7.26823 26.9531 7.40885 27.0651 7.55469 27.1953C7.70052 27.3255 7.85417 27.4818 8.01562 27.6641C8.06771 27.7318 8.09375 27.7865 8.09375 27.8281C8.09375 27.875 8.06771 27.9271 8.01562 27.9844C7.85417 28.1667 7.70052 28.3229 7.55469 28.4531C7.40885 28.5833 7.26823 28.6953 7.13281 28.7891C7.0599 28.8307 6.96615 28.8516 6.85156 28.8516H4.66406C4.32031 28.8516 4.08594 28.9245 3.96094 29.0703C3.83594 29.2161 3.77344 29.4661 3.77344 29.8203V31.3359H6.57812C6.70312 31.3359 6.79688 31.3568 6.85938 31.3984C6.99479 31.4922 7.13542 31.6042 7.28125 31.7344C7.42708 31.8646 7.58073 32.0208 7.74219 32.2031C7.79427 32.2708 7.82031 32.3255 7.82031 32.3672C7.82031 32.4141 7.79427 32.4661 7.74219 32.5234C7.58073 32.7057 7.42708 32.862 7.28125 32.9922C7.13542 33.1224 6.99479 33.2344 6.85938 33.3281C6.78646 33.3698 6.69271 33.3906 6.57812 33.3906H3.77344V34.9688C3.77344 35.3177 3.83594 35.5677 3.96094 35.7188C4.08594 35.8698 4.32031 35.9453 4.66406 35.9453H7.10938C7.23438 35.9453 7.32812 35.9661 7.39062 36.0078C7.52604 36.1016 7.66667 36.2135 7.8125 36.3438C7.95833 36.474 8.11198 36.6302 8.27344 36.8125C8.32552 36.8802 8.35156 36.9349 8.35156 36.9766C8.35156 37.0234 8.32552 37.0755 8.27344 37.1328C8.11198 37.3151 7.95833 37.4714 7.8125 37.6016C7.66667 37.7318 7.52604 37.8438 7.39062 37.9375C7.31771 37.9792 7.22396 38 7.10938 38H3.17969ZM11.875 38.1953C11.1094 38.1953 10.5 37.9818 10.0469 37.5547C9.59896 37.1224 9.375 36.5286 9.375 35.7734C9.375 35.3828 9.44531 35.0208 9.58594 34.6875C9.73177 34.349 9.98177 34.0521 10.3359 33.7969C10.6953 33.5365 11.1953 33.3281 11.8359 33.1719C12.4818 33.0156 13.3047 32.9245 14.3047 32.8984C14.3047 32.4245 14.1849 32.0833 13.9453 31.875C13.7109 31.6667 13.3568 31.5625 12.8828 31.5625C12.4557 31.5625 12.1068 31.6354 11.8359 31.7812C11.5651 31.9271 11.3958 32.026 11.3281 32.0781C11.2552 32.1406 11.1667 32.1641 11.0625 32.1484C10.9219 32.1276 10.7708 32.0911 10.6094 32.0391C10.4531 31.987 10.2839 31.9271 10.1016 31.8594C10.0755 31.849 10.0469 31.8333 10.0156 31.8125C9.98438 31.7865 9.96615 31.75 9.96094 31.7031C9.96094 31.6771 9.96354 31.6458 9.96875 31.6094C9.97396 31.5677 9.98698 31.4948 10.0078 31.3906C10.0286 31.2865 10.0599 31.1589 10.1016 31.0078C10.1432 30.8516 10.1823 30.7318 10.2188 30.6484C10.2656 30.5599 10.3438 30.4766 10.4531 30.3984C10.5417 30.3255 10.8099 30.2083 11.2578 30.0469C11.7057 29.8854 12.3542 29.8047 13.2031 29.8047C15.5417 29.8047 16.7109 30.9427 16.7109 33.2188V37.6406C16.7109 37.7396 16.6823 37.8255 16.625 37.8984C16.5729 37.9661 16.4818 38 16.3516 38H15.1797C15.0964 38 15.0208 37.9896 14.9531 37.9688C14.8906 37.9427 14.8307 37.8958 14.7734 37.8281L14.2891 37.2031H14.2344C13.9948 37.5521 13.6719 37.8047 13.2656 37.9609C12.8646 38.1172 12.401 38.1953 11.875 38.1953ZM12.7344 36.3828C13.2135 36.3828 13.5755 36.2604 13.8203 36.0156C14.0651 35.7708 14.2214 35.5182 14.2891 35.2578V34.3906C13.5651 34.3906 13.0208 34.4479 12.6562 34.5625C12.2969 34.6719 12.0573 34.8177 11.9375 35C11.8177 35.1771 11.7578 35.3698 11.7578 35.5781C11.7578 35.8802 11.8516 36.0911 12.0391 36.2109C12.2266 36.3255 12.4583 36.3828 12.7344 36.3828ZM21.8281 38.1953C20.0885 38.1953 19.2188 37.2917 19.2188 35.4844V31.8203H18.3359C18.1797 31.8203 18.0703 31.7891 18.0078 31.7266C17.9505 31.6589 17.9219 31.5469 17.9219 31.3906V30.4297C17.9219 30.2734 17.9505 30.1641 18.0078 30.1016C18.0703 30.0339 18.1797 30 18.3359 30H19.2188V28.7422C19.2188 28.6172 19.2448 28.5208 19.2969 28.4531C19.5156 28.1667 19.8359 27.8568 20.2578 27.5234C20.3307 27.4714 20.3958 27.4453 20.4531 27.4453C20.5156 27.4453 20.5781 27.4714 20.6406 27.5234C20.8646 27.6953 21.0521 27.8568 21.2031 28.0078C21.3594 28.1589 21.4922 28.3073 21.6016 28.4531C21.6536 28.5208 21.6797 28.6172 21.6797 28.7422V30H23.0625C23.2188 30 23.3255 30.0339 23.3828 30.1016C23.4453 30.1641 23.4766 30.2734 23.4766 30.4297V31.3906C23.4766 31.5469 23.4453 31.6589 23.3828 31.7266C23.3255 31.7891 23.2188 31.8203 23.0625 31.8203H21.6797V35.0547C21.6797 35.888 21.9818 36.3047 22.5859 36.3047C22.6797 36.3047 22.7656 36.2969 22.8438 36.2812C22.9219 36.2604 22.9896 36.2396 23.0469 36.2188C23.1562 36.1771 23.2318 36.1615 23.2734 36.1719C23.3203 36.1823 23.362 36.2396 23.3984 36.3438L23.8516 37.5547C23.8984 37.6849 23.8672 37.7786 23.7578 37.8359C23.6797 37.8724 23.4896 37.9401 23.1875 38.0391C22.8906 38.1432 22.4375 38.1953 21.8281 38.1953ZM6.09375 58.5859C6.09375 58.7422 6.0599 58.8516 5.99219 58.9141C5.92969 58.9714 5.82031 59 5.66406 59H4C3.84375 59 3.73177 58.9714 3.66406 58.9141C3.60156 58.8516 3.57031 58.7422 3.57031 58.5859V49.8516H1.24219C1.11719 49.8516 1.02344 49.8307 0.960938 49.7891C0.825521 49.6953 0.684896 49.5833 0.539062 49.4531C0.398438 49.3229 0.244792 49.1667 0.078125 48.9844C0.0260417 48.9167 0 48.862 0 48.8203C0 48.7734 0.0260417 48.7214 0.078125 48.6641C0.244792 48.4818 0.398438 48.3255 0.539062 48.1953C0.684896 48.0651 0.825521 47.9531 0.960938 47.8594C1.03385 47.8177 1.1276 47.7969 1.24219 47.7969H8.42969C8.55469 47.7969 8.64844 47.8177 8.71094 47.8594C8.84635 47.9531 8.98698 48.0651 9.13281 48.1953C9.27865 48.3255 9.43229 48.4818 9.59375 48.6641C9.64583 48.7318 9.67188 48.7865 9.67188 48.8281C9.67188 48.875 9.64583 48.9271 9.59375 48.9844C9.43229 49.1667 9.27865 49.3229 9.13281 49.4531C8.98698 49.5833 8.84635 49.6953 8.71094 49.7891C8.63802 49.8307 8.54427 49.8516 8.42969 49.8516H6.09375V58.5859ZM10.3672 48.375C10.3672 48.3073 10.388 48.2474 10.4297 48.1953C10.4714 48.1432 10.526 48.0755 10.5938 47.9922C10.7396 47.8255 10.9089 47.651 11.1016 47.4688C11.2943 47.2812 11.4896 47.1016 11.6875 46.9297C11.8125 46.8307 11.9062 46.7812 11.9688 46.7812C12.0312 46.7812 12.1276 46.8307 12.2578 46.9297C12.6797 47.2943 13.0391 47.6484 13.3359 47.9922C13.4036 48.0703 13.4583 48.138 13.5 48.1953C13.5469 48.2474 13.5703 48.3073 13.5703 48.375C13.5703 48.4427 13.5469 48.5026 13.5 48.5547C13.4583 48.6068 13.401 48.6771 13.3281 48.7656C13.1875 48.9271 13.0234 49.1016 12.8359 49.2891C12.6484 49.4714 12.4557 49.6458 12.2578 49.8125C12.1849 49.875 12.1276 49.9167 12.0859 49.9375C12.0443 49.9531 12.0052 49.9609 11.9688 49.9609C11.9323 49.9609 11.8932 49.9531 11.8516 49.9375C11.8151 49.9167 11.7552 49.875 11.6719 49.8125C11.4635 49.6458 11.2682 49.4714 11.0859 49.2891C10.9036 49.1016 10.7396 48.9219 10.5938 48.75C10.526 48.6667 10.4714 48.6016 10.4297 48.5547C10.388 48.5026 10.3672 48.4427 10.3672 48.375ZM13.1953 58.5859C13.1953 58.7422 13.1615 58.8516 13.0938 58.9141C13.0312 58.9714 12.9219 59 12.7656 59H11.1562C11 59 10.888 58.9714 10.8203 58.9141C10.7578 58.8516 10.7266 58.7422 10.7266 58.5859V51.4141C10.7266 51.2578 10.7578 51.151 10.8203 51.0938C10.888 51.0312 11 51 11.1562 51H12.7656C12.9219 51 13.0312 51.0312 13.0938 51.0938C13.1615 51.151 13.1953 51.2578 13.1953 51.4141V58.5859ZM23.0547 54.0234V58.5859C23.0547 58.7422 23.0208 58.8516 22.9531 58.9141C22.8906 58.9714 22.7812 59 22.625 59H21.0156C20.8594 59 20.7474 58.9714 20.6797 58.9141C20.6172 58.8516 20.5859 58.7422 20.5859 58.5859V54.4297C20.5859 53.862 20.4661 53.4479 20.2266 53.1875C19.987 52.9271 19.6615 52.7969 19.25 52.7969C18.8385 52.7969 18.5208 52.8854 18.2969 53.0625C18.0781 53.2396 17.9089 53.4635 17.7891 53.7344V58.5859C17.7891 58.7422 17.7552 58.8516 17.6875 58.9141C17.625 58.9714 17.5156 59 17.3594 59H15.75C15.5938 59 15.4818 58.9714 15.4141 58.9141C15.3516 58.8516 15.3203 58.7422 15.3203 58.5859V52.0391C15.3203 51.9141 15.3464 51.8177 15.3984 51.75C15.5078 51.6042 15.638 51.4557 15.7891 51.3047C15.9453 51.1536 16.1354 50.9922 16.3594 50.8203C16.4271 50.7682 16.4922 50.7422 16.5547 50.7422C16.612 50.7422 16.6771 50.7682 16.75 50.8203C16.9688 50.9922 17.1562 51.1562 17.3125 51.3125C17.4688 51.4688 17.6068 51.6302 17.7266 51.7969H17.7656C17.8542 51.6823 17.987 51.5495 18.1641 51.3984C18.3411 51.2422 18.5885 51.1042 18.9062 50.9844C19.2292 50.8646 19.6406 50.8047 20.1406 50.8047C20.6302 50.8047 21.0964 50.9036 21.5391 51.1016C21.9818 51.2995 22.3438 51.6328 22.625 52.1016C22.9115 52.5703 23.0547 53.2109 23.0547 54.0234ZM29 59.1953C27.6875 59.1953 26.6484 58.8464 25.8828 58.1484C25.1172 57.4505 24.7344 56.4115 24.7344 55.0312C24.7344 53.6146 25.1302 52.5573 25.9219 51.8594C26.7188 51.1562 27.7812 50.8047 29.1094 50.8047C30.3906 50.8047 31.4167 51.151 32.1875 51.8438C32.9583 52.5312 33.3438 53.5469 33.3438 54.8906C33.3438 56.2917 32.9583 57.3594 32.1875 58.0938C31.4167 58.8281 30.3542 59.1953 29 59.1953ZM29.0781 57.3047C29.651 57.3047 30.0833 57.1276 30.375 56.7734C30.6667 56.4141 30.8125 55.8021 30.8125 54.9375C30.8125 54.1146 30.6641 53.5365 30.3672 53.2031C30.0755 52.8646 29.6406 52.6953 29.0625 52.6953C28.5052 52.6953 28.0651 52.8776 27.7422 53.2422C27.4245 53.6016 27.2656 54.1875 27.2656 55C27.2656 55.849 27.4167 56.4453 27.7188 56.7891C28.026 57.1328 28.4792 57.3047 29.0781 57.3047ZM35.9062 55.0469C35.6823 55.0469 35.5651 54.9219 35.5547 54.6719L35.2578 48.1797C35.2474 47.9245 35.3698 47.7969 35.625 47.7969H37.5312C37.7865 47.7969 37.9089 47.9245 37.8984 48.1797L37.5859 54.6719C37.5755 54.9219 37.4583 55.0469 37.2344 55.0469H35.9062ZM34.9531 57.6484C34.9531 57.5807 34.974 57.5208 35.0156 57.4688C35.0625 57.4115 35.1224 57.3385 35.1953 57.25C35.3516 57.0729 35.5312 56.888 35.7344 56.6953C35.9375 56.4974 36.1458 56.3073 36.3594 56.125C36.4896 56.0208 36.5859 55.9688 36.6484 55.9688C36.7109 55.9688 36.8125 56.0208 36.9531 56.125C37.3906 56.5052 37.7734 56.8802 38.1016 57.25C38.1693 57.3385 38.2266 57.4115 38.2734 57.4688C38.3203 57.5208 38.3438 57.5807 38.3438 57.6484C38.3438 57.7214 38.3177 57.7865 38.2656 57.8438C38.2188 57.901 38.1615 57.9766 38.0938 58.0703C37.9427 58.2422 37.7656 58.4245 37.5625 58.6172C37.3646 58.8047 37.1615 58.9896 36.9531 59.1719C36.8229 59.2812 36.7214 59.3359 36.6484 59.3359C36.5911 59.3359 36.4896 59.2812 36.3438 59.1719C36.1198 58.9896 35.9115 58.8021 35.7188 58.6094C35.526 58.4167 35.3516 58.2292 35.1953 58.0469C35.1224 57.9583 35.0625 57.888 35.0156 57.8359C34.974 57.7839 34.9531 57.7214 34.9531 57.6484Z" fill="black"/>
<path d="M49.125 31H32.875C32.3777 31 31.9008 31.1975 31.5492 31.5492C31.1975 31.9008 31 32.3777 31 32.875C31 33.3723 31.1975 33.8492 31.5492 34.2008C31.9008 34.5525 32.3777 34.75 32.875 34.75H49.125C49.6223 34.75 50.0992 34.5525 50.4508 34.2008C50.8025 33.8492 51 33.3723 51 32.875C51 32.3777 50.8025 31.9008 50.4508 31.5492C50.0992 31.1975 49.6223 31 49.125 31ZM49.75 36H32.25C32.0842 36 31.9253 36.0658 31.8081 36.1831C31.6908 36.3003 31.625 36.4592 31.625 36.625V37.25C31.625 37.913 31.8884 38.5489 32.3572 39.0178C32.8261 39.4866 33.462 39.75 34.125 39.75H47.875C48.538 39.75 49.1739 39.4866 49.6428 39.0178C50.1116 38.5489 50.375 37.913 50.375 37.25V36.625C50.375 36.4592 50.3092 36.3003 50.1919 36.1831C50.0747 36.0658 49.9158 36 49.75 36ZM33.2906 29.75H48.7094C50.0598 29.75 50.843 28.0352 50.0695 26.7859C48.5 24.25 45.0449 22.2539 41 22.25C36.9555 22.2539 33.5 24.25 31.9305 26.7855C31.1562 28.0348 31.9402 29.75 33.2906 29.75ZM46 25.375C46.1236 25.375 46.2445 25.4117 46.3472 25.4803C46.45 25.549 46.5301 25.6466 46.5774 25.7608C46.6247 25.875 46.6371 26.0007 46.613 26.1219C46.5889 26.2432 46.5294 26.3545 46.4419 26.4419C46.3545 26.5293 46.2432 26.5889 46.1219 26.613C46.0007 26.6371 45.875 26.6247 45.7608 26.5774C45.6466 26.5301 45.549 26.45 45.4803 26.3472C45.4117 26.2445 45.375 26.1236 45.375 26C45.375 25.8342 45.4408 25.6753 45.5581 25.5581C45.6753 25.4408 45.8342 25.375 46 25.375ZM41 24.125C41.1236 24.125 41.2445 24.1617 41.3472 24.2303C41.45 24.299 41.5301 24.3966 41.5774 24.5108C41.6247 24.625 41.6371 24.7507 41.613 24.8719C41.5889 24.9932 41.5294 25.1045 41.4419 25.1919C41.3545 25.2793 41.2432 25.3389 41.1219 25.363C41.0007 25.3871 40.875 25.3747 40.7608 25.3274C40.6466 25.2801 40.549 25.2 40.4803 25.0972C40.4117 24.9945 40.375 24.8736 40.375 24.75C40.375 24.5842 40.4408 24.4253 40.5581 24.3081C40.6753 24.1908 40.8342 24.125 41 24.125ZM36 25.375C36.1236 25.375 36.2445 25.4117 36.3472 25.4803C36.45 25.549 36.5301 25.6466 36.5774 25.7608C36.6247 25.875 36.6371 26.0007 36.613 26.1219C36.5889 26.2432 36.5293 26.3545 36.4419 26.4419C36.3545 26.5293 36.2432 26.5889 36.1219 26.613C36.0007 26.6371 35.875 26.6247 35.7608 26.5774C35.6466 26.5301 35.549 26.45 35.4803 26.3472C35.4117 26.2445 35.375 26.1236 35.375 26C35.375 25.8342 35.4408 25.6753 35.5581 25.5581C35.6753 25.4408 35.8342 25.375 36 25.375Z" fill="#F3944A"/>
</svg>
