<svg width="34" height="34" viewBox="0 0 34 34" fill="none" xmlns="http://www.w3.org/2000/svg">
<path d="M16.6244 11.6995L7.55592 19.1684V27.2295C7.55592 27.4382 7.63884 27.6383 7.78642 27.7859C7.93401 27.9335 8.13418 28.0164 8.3429 28.0164L13.8547 28.0022C14.0627 28.0011 14.2619 27.9178 14.4086 27.7703C14.5554 27.6228 14.6377 27.4232 14.6377 27.2152V22.5076C14.6377 22.2989 14.7206 22.0987 14.8682 21.9511C15.0158 21.8035 15.216 21.7206 15.4247 21.7206H18.5726C18.7813 21.7206 18.9815 21.8035 19.1291 21.9511C19.2767 22.0987 19.3596 22.2989 19.3596 22.5076V27.2117C19.3593 27.3153 19.3794 27.4179 19.4188 27.5137C19.4582 27.6094 19.5161 27.6965 19.5892 27.7698C19.6623 27.8432 19.7492 27.9013 19.8448 27.941C19.9405 27.9807 20.043 28.0012 20.1466 28.0012L25.6564 28.0164C25.8651 28.0164 26.0653 27.9335 26.2129 27.7859C26.3604 27.6383 26.4434 27.4382 26.4434 27.2295V19.1629L17.3769 11.6995C17.2703 11.6135 17.1375 11.5667 17.0006 11.5667C16.8637 11.5667 16.7309 11.6135 16.6244 11.6995ZM30.9488 16.7759L26.8368 13.3865V6.57378C26.8368 6.41724 26.7747 6.26712 26.664 6.15643C26.5533 6.04574 26.4032 5.98355 26.2466 5.98355H23.4922C23.3357 5.98355 23.1855 6.04574 23.0748 6.15643C22.9641 6.26712 22.902 6.41724 22.902 6.57378V10.1452L18.4983 6.52214C18.0757 6.17438 17.5455 5.98425 16.9982 5.98425C16.4509 5.98425 15.9206 6.17438 15.498 6.52214L3.04753 16.7759C2.98777 16.8253 2.93832 16.886 2.90201 16.9546C2.86571 17.0231 2.84326 17.0981 2.83596 17.1753C2.82865 17.2525 2.83662 17.3303 2.85942 17.4044C2.88222 17.4786 2.9194 17.5475 2.96884 17.6072L4.22308 19.132C4.27238 19.1919 4.33302 19.2415 4.40152 19.278C4.47003 19.3145 4.54506 19.3371 4.62232 19.3446C4.69957 19.352 4.77754 19.3441 4.85175 19.3214C4.92597 19.2987 4.99497 19.2616 5.05481 19.2121L16.6244 9.68283C16.7309 9.59692 16.8637 9.55006 17.0006 9.55006C17.1375 9.55006 17.2703 9.59692 17.3769 9.68283L28.9469 19.2121C29.0067 19.2616 29.0756 19.2987 29.1497 19.3215C29.2238 19.3443 29.3017 19.3523 29.3789 19.345C29.4561 19.3377 29.5311 19.3153 29.5996 19.279C29.6681 19.2427 29.7288 19.1932 29.7782 19.1334L31.0324 17.6087C31.0818 17.5486 31.1188 17.4793 31.1414 17.4049C31.1639 17.3305 31.1715 17.2523 31.1637 17.1749C31.1559 17.0975 31.133 17.0225 31.0961 16.954C31.0592 16.8855 31.0091 16.825 30.9488 16.7759Z" fill="white"/>
</svg>
