<svg width="29" height="29" viewBox="0 0 29 29" fill="none" xmlns="http://www.w3.org/2000/svg">
<path d="M4.68229 4.68228C4.23419 4.68228 3.79616 4.81516 3.42358 5.06411C3.051 5.31306 2.76061 5.6669 2.58913 6.08089C2.41765 6.49488 2.37278 6.95042 2.4602 7.38991C2.54762 7.8294 2.7634 8.23309 3.08025 8.54995C3.3971 8.8668 3.8008 9.08258 4.24029 9.17C4.67978 9.25742 5.13532 9.21255 5.54931 9.04107C5.9633 8.86959 6.31714 8.5792 6.56609 8.20662C6.81504 7.83404 6.94792 7.396 6.94792 6.94791C6.94792 6.34703 6.70922 5.77075 6.28433 5.34587C5.85944 4.92098 5.28317 4.68228 4.68229 4.68228ZM4.68229 12.2344C4.23419 12.2344 3.79616 12.3672 3.42358 12.6162C3.051 12.8651 2.76061 13.219 2.58913 13.633C2.41765 14.047 2.37278 14.5025 2.4602 14.942C2.54762 15.3815 2.7634 15.7852 3.08025 16.102C3.3971 16.4189 3.8008 16.6347 4.24029 16.7221C4.67978 16.8095 5.13532 16.7646 5.54931 16.5932C5.9633 16.4217 6.31714 16.1313 6.56609 15.7587C6.81504 15.3861 6.94792 14.9481 6.94792 14.5C6.94792 13.8991 6.70922 13.3228 6.28433 12.898C5.85944 12.4731 5.28317 12.2344 4.68229 12.2344ZM4.68229 19.7864C4.23419 19.7864 3.79616 19.9193 3.42358 20.1683C3.051 20.4172 2.76061 20.7711 2.58913 21.1851C2.41765 21.599 2.37278 22.0546 2.4602 22.4941C2.54762 22.9336 2.7634 23.3373 3.08025 23.6541C3.3971 23.971 3.8008 24.1867 4.24029 24.2742C4.67978 24.3616 5.13532 24.3167 5.54931 24.1452C5.9633 23.9738 6.31714 23.6834 6.56609 23.3108C6.81504 22.9382 6.94792 22.5002 6.94792 22.0521C6.94792 21.4512 6.70922 20.8749 6.28433 20.45C5.85944 20.0251 5.28317 19.7864 4.68229 19.7864ZM25.8281 20.5417H10.724C10.5237 20.5417 10.3316 20.6212 10.1899 20.7629C10.0483 20.9045 9.96875 21.0966 9.96875 21.2969V22.8073C9.96875 23.0076 10.0483 23.1997 10.1899 23.3413C10.3316 23.4829 10.5237 23.5625 10.724 23.5625H25.8281C26.0284 23.5625 26.2205 23.4829 26.3621 23.3413C26.5038 23.1997 26.5833 23.0076 26.5833 22.8073V21.2969C26.5833 21.0966 26.5038 20.9045 26.3621 20.7629C26.2205 20.6212 26.0284 20.5417 25.8281 20.5417ZM25.8281 5.43749H10.724C10.5237 5.43749 10.3316 5.51706 10.1899 5.65869C10.0483 5.80031 9.96875 5.9924 9.96875 6.1927V7.70311C9.96875 7.90341 10.0483 8.0955 10.1899 8.23713C10.3316 8.37876 10.5237 8.45832 10.724 8.45832H25.8281C26.0284 8.45832 26.2205 8.37876 26.3621 8.23713C26.5038 8.0955 26.5833 7.90341 26.5833 7.70311V6.1927C26.5833 5.9924 26.5038 5.80031 26.3621 5.65869C26.2205 5.51706 26.0284 5.43749 25.8281 5.43749ZM25.8281 12.9896H10.724C10.5237 12.9896 10.3316 13.0691 10.1899 13.2108C10.0483 13.3524 9.96875 13.5445 9.96875 13.7448V15.2552C9.96875 15.4555 10.0483 15.6476 10.1899 15.7892C10.3316 15.9308 10.5237 16.0104 10.724 16.0104H25.8281C26.0284 16.0104 26.2205 15.9308 26.3621 15.7892C26.5038 15.6476 26.5833 15.4555 26.5833 15.2552V13.7448C26.5833 13.5445 26.5038 13.3524 26.3621 13.2108C26.2205 13.0691 26.0284 12.9896 25.8281 12.9896Z" fill="black"/>
</svg>
